<?xml version="1.0" encoding="utf-8"?>
<svg xmlns="http://www.w3.org/2000/svg" width="1280" height="720" viewBox="0 0 1280 720">
  <defs>
    <linearGradient id="bg3" x1="0%" y1="0%" x2="100%" y2="100%">
      <stop offset="0%" style="stop-color:#0a0a1a"/>
      <stop offset="50%" style="stop-color:#1a0a0a"/>
      <stop offset="100%" style="stop-color:#0a0a1a"/>
    </linearGradient>
    <linearGradient id="glow3" x1="0%" y1="0%" x2="100%" y2="100%">
      <stop offset="0%" style="stop-color:#E91E63;stop-opacity:0.15"/>
      <stop offset="50%" style="stop-color:#FF5722;stop-opacity:0.05"/>
      <stop offset="100%" style="stop-color:#E91E63;stop-opacity:0"/>
    </linearGradient>
    <linearGradient id="accent_red" x1="0%" y1="0%" x2="100%" y2="0%">
      <stop offset="0%" style="stop-color:#E91E63"/>
      <stop offset="100%" style="stop-color:#FF5722"/>
    </linearGradient>
    <linearGradient id="accent_orange" x1="0%" y1="0%" x2="100%" y2="100%">
      <stop offset="0%" style="stop-color:#FF5722"/>
      <stop offset="100%" style="stop-color:#FF9800"/>
    </linearGradient>
    <linearGradient id="seat_avail" x1="0%" y1="0%" x2="0%" y2="100%">
      <stop offset="0%" style="stop-color:#2E7D32"/>
      <stop offset="100%" style="stop-color:#1B5E20"/>
    </linearGradient>
    <linearGradient id="seat_booked" x1="0%" y1="0%" x2="0%" y2="100%">
      <stop offset="0%" style="stop-color:#616161"/>
      <stop offset="100%" style="stop-color:#424242"/>
    </linearGradient>
    <linearGradient id="seat_sel" x1="0%" y1="0%" x2="0%" y2="100%">
      <stop offset="0%" style="stop-color:#E91E63"/>
      <stop offset="100%" style="stop-color:#C2185B"/>
    </linearGradient>
    <filter id="neon3">
      <feGaussianBlur stdDeviation="4"/>
    </filter>
  </defs>

  <!-- Background -->
  <rect width="1280" height="720" fill="url(#bg3)"/>
  <rect width="1280" height="720" fill="url(#glow3)"/>

  <!-- Floating film strip decoration -->
  <g opacity="0.04">
    <rect x="50" y="-20" width="30" height="760" rx="3" fill="#E91E63"/>
    <rect x="1200" y="-20" width="30" height="760" rx="3" fill="#E91E63"/>
    <g fill="#0a0a1a">
      <rect x="55" y="30" width="20" height="15" rx="2"/><rect x="55" y="70" width="20" height="15" rx="2"/>
      <rect x="55" y="110" width="20" height="15" rx="2"/><rect x="55" y="150" width="20" height="15" rx="2"/>
      <rect x="55" y="190" width="20" height="15" rx="2"/><rect x="55" y="230" width="20" height="15" rx="2"/>
      <rect x="55" y="270" width="20" height="15" rx="2"/><rect x="55" y="310" width="20" height="15" rx="2"/>
      <rect x="55" y="350" width="20" height="15" rx="2"/><rect x="55" y="390" width="20" height="15" rx="2"/>
      <rect x="55" y="430" width="20" height="15" rx="2"/><rect x="55" y="470" width="20" height="15" rx="2"/>
      <rect x="55" y="510" width="20" height="15" rx="2"/><rect x="55" y="550" width="20" height="15" rx="2"/>
      <rect x="55" y="590" width="20" height="15" rx="2"/><rect x="55" y="630" width="20" height="15" rx="2"/>
      <rect x="1205" y="30" width="20" height="15" rx="2"/><rect x="1205" y="70" width="20" height="15" rx="2"/>
      <rect x="1205" y="110" width="20" height="15" rx="2"/><rect x="1205" y="150" width="20" height="15" rx="2"/>
      <rect x="1205" y="190" width="20" height="15" rx="2"/><rect x="1205" y="230" width="20" height="15" rx="2"/>
      <rect x="1205" y="270" width="20" height="15" rx="2"/><rect x="1205" y="310" width="20" height="15" rx="2"/>
      <rect x="1205" y="350" width="20" height="15" rx="2"/><rect x="1205" y="390" width="20" height="15" rx="2"/>
      <rect x="1205" y="430" width="20" height="15" rx="2"/><rect x="1205" y="470" width="20" height="15" rx="2"/>
      <rect x="1205" y="510" width="20" height="15" rx="2"/><rect x="1205" y="550" width="20" height="15" rx="2"/>
      <rect x="1205" y="590" width="20" height="15" rx="2"/><rect x="1205" y="630" width="20" height="15" rx="2"/>
    </g>
  </g>

  <!-- Main cinema dashboard -->
  <rect x="200" y="50" width="880" height="580" rx="20" fill="#12121a" stroke="rgba(233,30,99,0.12)" stroke-width="1.5"/>

  <!-- Movie banner top -->
  <rect x="200" y="50" width="880" height="180" rx="20" fill="#1a0a0a"/>
  <rect x="200" y="120" width="880" height="110" fill="#1a0a0a"/>

  <!-- Movie poster placeholder -->
  <rect x="230" y="75" width="120" height="160" rx="8" fill="url(#accent_red)" opacity="0.9"/>
  <text x="290" y="150" font-family="Arial" font-size="36" fill="#fff" text-anchor="middle">🎬</text>
  <rect x="240" y="170" width="100" height="6" rx="3" fill="#fff" opacity="0.3"/>
  <rect x="250" y="185" width="80" height="4" rx="2" fill="#fff" opacity="0.2"/>

  <!-- Movie info -->
  <text x="370" y="110" font-family="Arial" font-size="22" fill="#fff" font-weight="bold">Deadpool &amp; Wolverine</text>
  <rect x="370" y="125" width="80" height="22" rx="11" fill="rgba(233,30,99,0.3)" stroke="rgba(233,30,99,0.3)" stroke-width="1"/>
  <text x="410" y="140" font-family="Arial" font-size="10" fill="#FF4081" text-anchor="middle">★ 4.8/5</text>
  <text x="370" y="165" font-family="Arial" font-size="12" fill="rgba(255,255,255,0.5)">2h 10m · Action/Comedy · A</text>
  <text x="370" y="185" font-family="Arial" font-size="12" fill="rgba(255,255,255,0.5)">English · Hindi · Tamil</text>

  <!-- Book now button -->
  <rect x="370" y="200" width="120" height="30" rx="15" fill="url(#accent_red)"/>
  <text x="430" y="220" font-family="Arial" font-size="12" fill="#fff" text-anchor="middle" font-weight="bold">Book Now</text>

  <!-- Select showtime -->
  <rect x="230" y="250" width="820" height="80" rx="12" fill="#16162a" stroke="rgba(233,30,99,0.08)" stroke-width="1"/>
  <text x="250" y="275" font-family="Arial" font-size="12" fill="#FF4081" font-weight="600">SELECT SHOWTIME</text>
  
  <!-- Showtime slots -->
  <rect x="250" y="290" width="80" height="28" rx="14" fill="rgba(233,30,99,0.15)" stroke="rgba(233,30,99,0.2)" stroke-width="1"/>
  <text x="290" y="309" font-family="Arial" font-size="11" fill="#FF4081" text-anchor="middle">10:30 AM</text>
  <rect x="340" y="290" width="80" height="28" rx="14" fill="rgba(233,30,99,0.15)" stroke="rgba(233,30,99,0.2)" stroke-width="1"/>
  <text x="380" y="309" font-family="Arial" font-size="11" fill="#FF4081" text-anchor="middle">01:45 PM</text>
  <rect x="430" y="290" width="100" height="28" rx="14" fill="url(#accent_red)"/>
  <text x="480" y="309" font-family="Arial" font-size="11" fill="#fff" text-anchor="middle" font-weight="600">04:30 PM ◀</text>
  <rect x="540" y="290" width="80" height="28" rx="14" fill="rgba(233,30,99,0.15)" stroke="rgba(233,30,99,0.2)" stroke-width="1"/>
  <text x="580" y="309" font-family="Arial" font-size="11" fill="#FF4081" text-anchor="middle">07:15 PM</text>
  <rect x="630" y="290" width="80" height="28" rx="14" fill="rgba(233,30,99,0.15)" stroke="rgba(233,30,99,0.2)" stroke-width="1"/>
  <text x="670" y="309" font-family="Arial" font-size="11" fill="#FF4081" text-anchor="middle">10:00 PM</text>

  <!-- Seat layout -->
  <text x="250" y="365" font-family="Arial" font-size="12" fill="#FF4081" font-weight="600">SELECT SEATS</text>

  <!-- Screen representation -->
  <rect x="380" y="375" width="460" height="3" rx="1.5" fill="#E91E63" opacity="0.5"/>
  <rect x="380" y="378" width="460" height="1" rx="0.5" fill="#E91E63" opacity="0.2"/>
  <text x="610" y="393" font-family="Arial" font-size="9" fill="rgba(255,255,255,0.3)" text-anchor="middle">SCREEN</text>

  <!-- Row labels and seats -->
  <g font-family="Arial" font-size="9" fill="rgba(255,255,255,0.4)">
    <text x="360" y="415">A</text>
    <text x="360" y="435">B</text>
    <text x="360" y="455">C</text>
    <text x="360" y="475">D</text>
    <text x="360" y="495">E</text>
    <text x="360" y="515">F</text>
  </g>
  
  <!-- Seats grid -->
  <g>
    <!-- Row A -->
    <rect x="380" y="406" width="18" height="18" rx="4" fill="url(#seat_avail)"/>
    <rect x="404" y="406" width="18" height="18" rx="4" fill="url(#seat_avail)"/>
    <rect x="428" y="406" width="18" height="18" rx="4" fill="url(#seat_booked)"/>
    <rect x="452" y="406" width="18" height="18" rx="4" fill="url(#seat_booked)"/>
    <g opacity="0.3"><rect x="484" y="406" width="18" height="18" rx="4" fill="none" stroke="#333" stroke-width="1"/></g>
    <rect x="516" y="406" width="18" height="18" rx="4" fill="url(#seat_avail)"/>
    <rect x="540" y="406" width="18" height="18" rx="4" fill="url(#seat_avail)"/>
    <rect x="564" y="406" width="18" height="18" rx="4" fill="url(#seat_avail)"/>
    <rect x="588" y="406" width="18" height="18" rx="4" fill="url(#seat_booked)"/>
    <rect x="612" y="406" width="18" height="18" rx="4" fill="url(#seat_avail)"/>
    <rect x="636" y="406" width="18" height="18" rx="4" fill="url(#seat_avail)"/>
    <rect x="660" y="406" width="18" height="18" rx="4" fill="url(#seat_avail)"/>
    <rect x="684" y="406" width="18" height="18" rx="4" fill="url(#seat_avail)"/>
    <rect x="708" y="406" width="18" height="18" rx="4" fill="url(#seat_booked)"/>
    <rect x="732" y="406" width="18" height="18" rx="4" fill="url(#seat_booked)"/>
    <rect x="756" y="406" width="18" height="18" rx="4" fill="url(#seat_avail)"/>
    <rect x="780" y="406" width="18" height="18" rx="4" fill="url(#seat_avail)"/>

    <!-- Row B - similar pattern -->
    <rect x="380" y="426" width="18" height="18" rx="4" fill="url(#seat_avail)"/>
    <rect x="404" y="426" width="18" height="18" rx="4" fill="url(#seat_avail)"/>
    <rect x="428" y="426" width="18" height="18" rx="4" fill="url(#seat_avail)"/>
    <rect x="452" y="426" width="18" height="18" rx="4" fill="url(#seat_booked)"/>
    <g opacity="0.3"><rect x="484" y="426" width="18" height="18" rx="4" fill="none" stroke="#333" stroke-width="1"/></g>
    <rect x="516" y="426" width="18" height="18" rx="4" fill="url(#seat_avail)"/>
    <rect x="540" y="426" width="18" height="18" rx="4" fill="url(#seat_sel)"/>
    <rect x="564" y="426" width="18" height="18" rx="4" fill="url(#seat_sel)"/>
    <rect x="588" y="426" width="18" height="18" rx="4" fill="url(#seat_avail)"/>
    <rect x="612" y="426" width="18" height="18" rx="4" fill="url(#seat_avail)"/>
    <rect x="636" y="426" width="18" height="18" rx="4" fill="url(#seat_avail)"/>
    <rect x="660" y="426" width="18" height="18" rx="4" fill="url(#seat_avail)"/>
    <rect x="684" y="426" width="18" height="18" rx="4" fill="url(#seat_booked)"/>
    <rect x="708" y="426" width="18" height="18" rx="4" fill="url(#seat_booked)"/>
    <rect x="732" y="426" width="18" height="18" rx="4" fill="url(#seat_avail)"/>
    <rect x="756" y="426" width="18" height="18" rx="4" fill="url(#seat_avail)"/>
    <rect x="780" y="426" width="18" height="18" rx="4" fill="url(#seat_avail)"/>

    <!-- Row C -->
    <rect x="380" y="446" width="18" height="18" rx="4" fill="url(#seat_booked)"/>
    <rect x="404" y="446" width="18" height="18" rx="4" fill="url(#seat_booked)"/>
    <rect x="428" y="446" width="18" height="18" rx="4" fill="url(#seat_avail)"/>
    <rect x="452" y="446" width="18" height="18" rx="4" fill="url(#seat_avail)"/>
    <g opacity="0.3"><rect x="484" y="446" width="18" height="18" rx="4" fill="none" stroke="#333" stroke-width="1"/></g>
    <rect x="516" y="446" width="18" height="18" rx="4" fill="url(#seat_sel)"/>
    <rect x="540" y="446" width="18" height="18" rx="4" fill="url(#seat_sel)"/>
    <rect x="564" y="446" width="18" height="18" rx="4" fill="url(#seat_sel)"/>
    <rect x="588" y="446" width="18" height="18" rx="4" fill="url(#seat_sel)"/>
    <rect x="612" y="446" width="18" height="18" rx="4" fill="url(#seat_avail)"/>
    <rect x="636" y="446" width="18" height="18" rx="4" fill="url(#seat_avail)"/>
    <rect x="660" y="446" width="18" height="18" rx="4" fill="url(#seat_avail)"/>
    <rect x="684" y="446" width="18" height="18" rx="4" fill="url(#seat_booked)"/>
    <rect x="708" y="446" width="18" height="18" rx="4" fill="url(#seat_booked)"/>
    <rect x="732" y="446" width="18" height="18" rx="4" fill="url(#seat_booked)"/>
    <rect x="756" y="446" width="18" height="18" rx="4" fill="url(#seat_avail)"/>
    <rect x="780" y="446" width="18" height="18" rx="4" fill="url(#seat_avail)"/>

    <!-- Row D -->
    <rect x="380" y="466" width="18" height="18" rx="4" fill="url(#seat_avail)"/>
    <rect x="404" y="466" width="18" height="18" rx="4" fill="url(#seat_avail)"/>
    <rect x="428" y="466" width="18" height="18" rx="4" fill="url(#seat_avail)"/>
    <rect x="452" y="466" width="18" height="18" rx="4" fill="url(#seat_booked)"/>
    <g opacity="0.3"><rect x="484" y="466" width="18" height="18" rx="4" fill="none" stroke="#333" stroke-width="1"/></g>
    <rect x="516" y="466" width="18" height="18" rx="4" fill="url(#seat_avail)"/>
    <rect x="540" y="466" width="18" height="18" rx="4" fill="url(#seat_avail)"/>
    <rect x="564" y="466" width="18" height="18" rx="4" fill="url(#seat_booked)"/>
    <rect x="588" y="466" width="18" height="18" rx="4" fill="url(#seat_booked)"/>
    <rect x="612" y="466" width="18" height="18" rx="4" fill="url(#seat_avail)"/>
    <rect x="636" y="466" width="18" height="18" rx="4" fill="url(#seat_avail)"/>
    <rect x="660" y="466" width="18" height="18" rx="4" fill="url(#seat_avail)"/>
    <rect x="684" y="466" width="18" height="18" rx="4" fill="url(#seat_avail)"/>
    <rect x="708" y="466" width="18" height="18" rx="4" fill="url(#seat_avail)"/>
    <rect x="732" y="466" width="18" height="18" rx="4" fill="url(#seat_booked)"/>
    <rect x="756" y="466" width="18" height="18" rx="4" fill="url(#seat_booked)"/>
    <rect x="780" y="466" width="18" height="18" rx="4" fill="url(#seat_avail)"/>
  </g>

  <!-- Seat legend -->
  <rect x="230" y="530" width="12" height="12" rx="3" fill="url(#seat_avail)"/>
  <text x="248" y="541" font-family="Arial" font-size="10" fill="rgba(255,255,255,0.5)">Available</text>
  <rect x="330" y="530" width="12" height="12" rx="3" fill="url(#seat_sel)"/>
  <text x="348" y="541" font-family="Arial" font-size="10" fill="rgba(255,255,255,0.5)">Selected</text>
  <rect x="430" y="530" width="12" height="12" rx="3" fill="url(#seat_booked)"/>
  <text x="448" y="541" font-family="Arial" font-size="10" fill="rgba(255,255,255,0.5)">Booked</text>

  <!-- Bottom: price and checkout -->
  <rect x="230" y="555" width="820" height="55" rx="12" fill="#1a1a2e" stroke="rgba(233,30,99,0.08)" stroke-width="1"/>
  <text x="250" y="578" font-family="Arial" font-size="11" fill="rgba(255,255,255,0.5)">6 Seats Selected</text>
  <text x="250" y="596" font-family="Arial" font-size="18" fill="#FF4081" font-weight="bold">₹540</text>
  <rect x="750" y="563" width="130" height="38" rx="19" fill="url(#accent_red)"/>
  <text x="815" y="588" font-family="Arial" font-size="13" fill="#fff" text-anchor="middle" font-weight="bold">Pay Now ➤</text>

  <!-- Title and subtitle -->
  <rect x="0" y="620" width="1280" height="100" fill="url(#bg3)"/>
  <text x="640" y="660" font-family="Arial, sans-serif" font-size="32" fill="#fff" text-anchor="middle" font-weight="bold" letter-spacing="2">BookMyShow</text>
  <text x="640" y="690" font-family="Arial, sans-serif" font-size="14" fill="#FF8A80" text-anchor="middle" letter-spacing="3">Spring Boot · MySQL · REST APIs · Movie Booking Platform</text>
  <rect x="540" y="708" width="200" height="2" rx="1" fill="url(#accent_red)"/>
</svg>

